<svg xmlns="http://www.w3.org/2000/svg" viewBox="0 0 48 48"><g fill='#99CCFF'><path d="M42 24c0-2.7-2.4-5.1-6.2-6.8.5-4.1-.4-7.4-2.8-8.8-.8-.4-1.6-.6-2.5-.6-2 0-4.2.9-6.5 2.6-2.3-1.7-4.5-2.6-6.5-2.6-.9 0-1.8.2-2.5.6-2.4 1.4-3.2 4.7-2.8 8.8C8.4 18.9 6 21.3 6 24s2.4 5.1 6.2 6.8c-.5 4.1.4 7.4 2.8 8.8.8.4 1.6.6 2.5.6 2 0 4.2-.9 6.5-2.6 2.3 1.7 4.5 2.6 6.5 2.6.9 0 1.8-.2 2.5-.6 2.4-1.4 3.2-4.7 2.8-8.8 3.8-1.7 6.2-4.1 6.2-6.8zM30.5 9.8c.6 0 1.1.1 1.5.4 1.4.8 2.1 3.2 1.9 6.3-1.5-.5-3.1-.9-4.9-1.1-1.1-1.4-2.2-2.6-3.4-3.6 1.8-1.4 3.6-2 4.9-2zm-.4 17.7c-.7 1.2-1.4 2.3-2.2 3.3-1.2.1-2.5.2-3.9.2s-2.7-.1-3.9-.2c-.7-1-1.5-2.1-2.2-3.3-.7-1.2-1.3-2.4-1.8-3.5.5-1.1 1.1-2.3 1.8-3.5.7-1.2 1.4-2.3 2.2-3.3 1.2-.1 2.5-.2 3.9-.2s2.7.1 3.9.2c.7 1 1.5 2.1 2.2 3.3.7 1.2 1.3 2.4 1.8 3.5-.6 1.1-1.2 2.3-1.8 3.5zm2.7-.9c.3 1 .6 2 .8 2.9-.9.3-1.9.6-2.9.8.4-.6.8-1.2 1.1-1.8.4-.6.7-1.3 1-1.9zM24 35c-.7-.6-1.4-1.3-2.1-2.1.7 0 1.4.1 2.1.1s1.4 0 2.1-.1c-.7.8-1.4 1.5-2.1 2.1zm-6.7-4.7c-1-.2-2-.5-2.9-.8.2-.9.4-1.9.8-2.9.3.6.7 1.3 1 1.9.4.6.8 1.2 1.1 1.8zm-2.1-8.9c-.3-1-.6-2-.8-2.9.9-.3 1.9-.6 2.9-.8-.4.6-.8 1.2-1.1 1.8-.4.6-.7 1.3-1 1.9zM24 13c.7.6 1.4 1.3 2.1 2.1-.7-.1-1.4-.1-2.1-.1-.7 0-1.4 0-2.1.1.7-.8 1.4-1.5 2.1-2.1zm7.8 6.5c-.4-.6-.7-1.2-1.1-1.8 1 .2 2 .5 2.9.8-.2.9-.4 1.9-.8 2.9-.3-.6-.6-1.3-1-1.9zM16 10.1c.4-.3.9-.4 1.5-.4 1.3 0 3 .7 4.9 1.9-1.2 1-2.3 2.3-3.4 3.6-1.7.3-3.4.6-4.9 1.1-.2-3 .5-5.3 1.9-6.2zM8 24c0-1.7 1.7-3.4 4.6-4.8.3 1.5.8 3.1 1.5 4.8-.7 1.6-1.1 3.2-1.5 4.8C9.7 27.4 8 25.7 8 24zm9.5 14.2c-.6 0-1.1-.1-1.5-.4-1.4-.8-2.1-3.2-1.9-6.3 1.5.5 3.1.9 4.9 1.1 1.1 1.4 2.2 2.6 3.4 3.6-1.8 1.4-3.6 2-4.9 2zm14.5-.3c-.4.3-.9.4-1.5.4-1.3 0-3-.7-4.9-1.9 1.2-1 2.3-2.3 3.4-3.6 1.7-.3 3.4-.6 4.9-1.1.2 3-.5 5.3-1.9 6.2zm3.4-9.1c-.3-1.5-.8-3.1-1.5-4.8.7-1.6 1.1-3.2 1.5-4.8 2.9 1.3 4.6 3.1 4.6 4.8s-1.7 3.4-4.6 4.8z"></path><circle fill='#0092FF' cx="24" cy="24" r="4"></circle></g></svg>